:SAMPLES-PER-SECOND 30
:FULLY-SPECIFIED
:DEGREES
979
root  -10.4681 32.4888 43.9126 -64.5369 -5.08312 80.5321
Spine  1.3401 -5.54065 -10.1212
Spine1  1.33972 -4.6721 0.213572
Neck  3.97569e-016 0 -2.38542e-015
Head  -16.0878 -3.16878 9.0334
R_Clavicle  0.310498 -9.14877 1.20259
R_UpperArm  33.7358 0.855445 -1.89177
R_Forearm  -15.3862 -48.6676 27.8779
R_Hand  -1.50039 11.7617 -22.4228
L_Clavicle  -0.357141 13.2345 -0.603275
L_UpperArm  -27.0507 5.53313 13.6524
L_Forearm  9.31496 43.1591 52.7253
L_Hand  0.0621267 0.747912 1.1465
L_Thigh  -4.15441 -8.70859 -3.86105
L_Calf  3.83661 -3.29404 24.5931
L_Foot  3.35754 13.6375 0.111244
L_Toe0  0.505156 0.0360825 -6.13608
R_Thigh  14.3244 -6.25495 -9.93703
R_Calf  -0.208114 0.226965 0.63071
R_Foot  1.43909 4.70353 -1.02228
R_Toe0  -2.32152 -0.263968 -16.8536
980
root  -10.2074 32.4627 44.0782 -65.2813 -5.31574 80.2477
Spine  1.33838 -6.92032 -10.7101
Spine1  1.19626 -3.1902 -0.621991
Neck  3.97569e-016 0 -2.38542e-015
Head  -15.3952 -2.37309 11.7297
R_Clavicle  0.335896 -10.5122 1.33572
R_UpperArm  37.2913 0.250108 2.49959
R_Forearm  -13.414 -47.8596 30.4033
R_Hand  -1.58711 12.3933 -22.8912
L_Clavicle  -0.354515 13.0934 -0.518652
L_UpperArm  -27.8652 6.08581 14.9561
L_Forearm  14.0915 44.5667 58.104
L_Hand  0.163513 -0.159802 3.43099
L_Thigh  -4.64713 -8.3588 -3.82118
L_Calf  3.64732 -3.45523 24.9249
L_Foot  3.08875 13.3077 -0.486097
L_Toe0  0.505156 0.0361456 -6.13608
R_Thigh  12.1184 -6.4846 -11.8746
R_Calf  0.909342 -0.621354 -1.99929
R_Foot  1.51413 4.79036 -1.72878
R_Toe0  -1.72219 -0.275553 -17.382
981
root  -9.94728 32.4181 44.2722 -66.4661 -5.42711 79.7954
Spine  1.58674 -7.63855 -11.3724
Spine1  1.24415 -2.81751 -1.37122
Neck  3.97569e-016 0 -2.38542e-015
Head  -15.1036 -1.61335 14.2279
R_Clavicle  0.356851 -11.8566 1.45576
R_UpperArm  39.4652 -0.429884 7.44583
R_Forearm  -8.31303 -46.5118 30.6532
R_Hand  -1.66438 12.2296 -23.3739
L_Clavicle  -0.365152 13.1839 -0.218602
L_UpperArm  -27.9423 6.50207 17.3147
L_Forearm  16.5965 44.7862 59.1769
L_Hand  0.264902 -0.212283 5.61987
L_Thigh  -5.28828 -8.15877 -3.68786
L_Calf  3.31693 -3.63738 25.1813
L_Foot  2.71069 12.6712 -1.21728
L_Toe0  0.505156 0.0362047 -6.13608
R_Thigh  8.8242 -6.67801 -14.1293
R_Calf  0.163415 -1.19489 -3.78036
R_Foot  1.67885 5.4528 -1.44594
R_Toe0  -1.83675 -0.272605 -17.3511
982
root  -9.68069 32.3419 44.5213 -67.9676 -5.35083 79.2077
Spine  1.99698 -7.64889 -12.0413
Spine1  1.46517 -3.50061 -2.04161
Neck  3.97569e-016 0 -2.38542e-015
Head  -15.0738 -0.999693 16.1762
R_Clavicle  0.379077 -13.0415 1.63334
R_UpperArm  40.327 -1.04311 12.4288
R_Forearm  -2.96886 -45.0403 29.6613
R_Hand  -1.59953 11.6888 -23.043
L_Clavicle  -0.387204 13.5747 0.236612
L_UpperArm  -27.08 6.56185 20.4383
L_Forearm  16.213 44.2974 56.662
L_Hand  0.344738 0.504032 6.45631
L_Thigh  -6.18961 -8.14963 -3.31811
L_Calf  2.84863 -3.81397 25.3476
L_Foot  2.4168 12.3283 -1.91591
L_Toe0  0.505156 0.0362593 -6.13608
R_Thigh  5.28842 -7.19487 -16.3171
R_Calf  -0.897897 -1.38402 -4.37038
R_Foot  1.71396 5.36092 -2.37172
R_Toe0  -1.40986 -0.268494 -17.2787
983
root  -9.39661 32.2504 44.8263 -69.4576 -5.2433 78.5026
Spine  2.38806 -7.0135 -12.3821
Spine1  1.7543 -4.98886 -2.77281
Neck  3.97569e-016 0 -2.38542e-015
Head  -15.1607 -0.557889 17.5471
R_Clavicle  0.40463 -14.0691 1.91101
R_UpperArm  40.1582 -1.63808 17.2152
R_Forearm  0.958767 -43.5608 28.0507
R_Hand  -1.47279 11.1219 -22.2938
L_Clavicle  -0.41417 14.2434 0.809524
L_UpperArm  -25.6132 6.05962 23.7702
L_Forearm  13.8388 43.3819 52.3671
L_Hand  0.32501 1.27104 5.46072
L_Thigh  -7.14762 -8.25469 -2.89054
L_Calf  2.28391 -4.01234 25.623
L_Foot  2.16989 12.2212 -2.64657
L_Toe0  0.505156 0.0363088 -6.13608
R_Thigh  2.24119 -8.19346 -18.5092
R_Calf  -2.6229 -1.00229 -3.18868
R_Foot  1.90077 5.38535 -5.3104
R_Toe0  0.829881 -0.353469 -14.5871
984
root  -9.07757 32.1688 45.1662 -70.6605 -5.33011 77.8638
Spine  2.62242 -5.73033 -12.3149
Spine1  1.99101 -6.92759 -3.45256
Neck  3.97569e-016 0 -2.38542e-015
Head  -15.162 -0.326658 18.5394
R_Clavicle  0.425365 -14.8556 2.19321
R_UpperArm  39.519 -2.30699 21.5035
R_Forearm  3.02537 -42.2822 26.5294
R_Hand  -1.43007 10.5806 -22.05
L_Clavicle  -0.43423 14.9212 1.37919
L_UpperArm  -24.0616 5.24297 26.7885
L_Forearm  10.4259 42.0886 47.828
L_Hand  0.193066 1.45763 3.2163
L_Thigh  -8.08439 -8.15523 -2.5763
L_Calf  2.06216 -4.17695 26.0742
L_Foot  1.75101 11.7605 -3.70762
L_Toe0  0.505156 0.0363529 -6.13608
R_Thigh  -0.149071 -9.21091 -21.1029
R_Calf  -5.60627 0.0670556 0.122904
R_Foot  2.23843 6.3839 -6.94212
R_Toe0  1.51665 -0.382467 -5.58848
985
root  -8.69621 32.0943 45.5434 -71.5361 -5.54296 77.5062
Spine  2.70737 -4.01495 -12.11
Spine1  2.14787 -8.79454 -3.99299
Neck  3.97569e-016 0 -2.38542e-015
Head  -14.9269 -0.407794 19.2731
R_Clavicle  0.435587 -15.2418 2.35367
R_UpperArm  39.1615 -3.14601 24.98
R_Forearm  3.54961 -41.5056 25.8318
R_Hand  -1.47368 10.1941 -22.3693
L_Clavicle  -0.44226 15.2449 1.77342
L_UpperArm  -22.2635 4.71451 29.1391
L_Forearm  6.25261 40.3861 44.1156
L_Hand  0.0449381 1.23556 0.816616
L_Thigh  -9.04901 -7.70273 -2.18749
L_Calf  2.35441 -4.20958 26.6182
L_Foot  1.22304 11.2292 -5.11748
L_Toe0  0.505156 0.036391 -6.13608
R_Thigh  -1.93588 -9.69881 -24.0995
R_Calf  -8.43684 1.68245 5.13775
R_Foot  2.29823 7.27408 -3.80725
R_Toe0  -1.81452 0.685529 2.01322
986
root  -8.21349 31.9971 45.9983 -72.1658 -5.57412 77.4436
Spine  2.72492 -2.47932 -11.9813
Spine1  2.2682 -9.93577 -4.53613
Neck  3.97569e-016 0 -2.38542e-015
Head  -14.4119 -0.965748 19.5672
R_Clavicle  0.439618 -15.3059 2.41901
R_UpperArm  39.5697 -3.99969 27.6821
R_Forearm  3.18566 -41.3957 26.1489
R_Hand  -1.51365 10.0961 -22.6481
L_Clavicle  -0.443367 15.1895 2.01782
L_UpperArm  -20.2457 4.76065 30.5223
L_Forearm  2.05941 38.5356 41.9887
L_Hand  -0.0511436 1.15331 -0.807792
L_Thigh  -9.64496 -7.11466 -1.33085
L_Calf  2.47396 -4.21265 27.2408
L_Foot  0.774316 11.3139 -6.69718
L_Toe0  0.505156 0.0364229 -6.13608
R_Thigh  -3.03992 -9.57617 -26.755
R_Calf  -9.33323 3.47615 10.7677
R_Foot  1.88049 6.99166 3.06421
R_Toe0  -3.88294 1.49374 2.70964
987
root  -7.59392 31.895 46.5523 -72.5664 -5.3374 77.8832
Spine  2.68561 -1.27415 -11.9834
Spine1  2.33658 -9.92547 -5.10773
Neck  3.97569e-016 0 -2.38542e-015
Head  -13.4938 -2.12053 19.1178
R_Clavicle  0.44709 -15.3844 2.54019
R_UpperArm  40.415 -4.37946 29.83
R_Forearm  2.62964 -41.8585 27.2396
R_Hand  -1.51189 10.1474 -22.6311
L_Clavicle  -0.444687 15.0989 2.30046
L_UpperArm  -20.3117 5.15506 30.6978
L_Forearm  0.305164 37.6105 41.5646
L_Hand  -0.0859025 1.26321 -1.36179
L_Thigh  -9.36381 -6.20352 0.0772781
L_Calf  1.97384 -4.44106 28.26
L_Foot  0.190468 11.3754 -8.73867
L_Toe0  0.505156 0.036448 -6.13608
R_Thigh  -3.28911 -8.55 -28.1317
R_Calf  -7.72896 5.02844 15.7441
R_Foot  1.02332 5.55665 9.25397
R_Toe0  -3.91638 1.02183 -1.94456
988
root  -6.82428 31.8228 47.1904 -72.6365 -5.06004 79.2848
Spine  2.49593 0.179955 -12.1525
Spine1  2.1944 -8.81803 -5.40472
Neck  3.97569e-016 0 -2.38542e-015
Head  -11.9026 -3.79058 17.8398
R_Clavicle  0.458482 -15.6138 2.74104
R_UpperArm  41.3978 -4.04435 31.4055
R_Forearm  1.87858 -42.7069 28.891
R_Hand  -1.48779 10.1595 -22.4673
L_Clavicle  -0.447742 15.153 2.64693
L_UpperArm  -22.4305 5.76186 29.7421
L_Forearm  0.620196 37.7064 42.4263
L_Hand  -0.0767689 1.2058 -1.22537
L_Thigh  -8.39204 -4.2967 1.90687
L_Calf  1.59422 -4.8883 29.7604
L_Foot  -0.717272 10.2024 -11.2744
L_Toe0  0.505156 0.0364658 -6.13608
R_Thigh  -2.96297 -5.93177 -27.909
R_Calf  -4.18053 6.07504 19.1866
R_Foot  -0.0155881 3.54113 12.3825
R_Toe0  -1.99492 0.266039 -5.51493
989
root  -5.94238 31.77 47.8828 -72.0999 -4.965 81.5914
Spine  1.98918 2.00876 -12.4602
Spine1  1.62214 -6.7688 -5.15016
Neck  3.97569e-016 0 -2.38542e-015
Head  -9.49818 -5.71477 15.8937
R_Clavicle  0.462758 -15.7304 2.82333
R_UpperArm  42.5788 -3.42943 32.3358
R_Forearm  0.809276 -43.5697 30.7827
R_Hand  -1.45228 10.2331 -22.2217
L_Clavicle  -0.449283 15.1495 2.85409
L_UpperArm  -25.1208 6.876 28.1147
L_Forearm  1.32311 38.0845 44.0104
L_Hand  -0.0575296 0.916025 -0.957248
L_Thigh  -7.36189 -1.42562 4.03233
L_Calf  2.02282 -5.29007 31.3138
L_Foot  -1.36909 8.47147 -12.7542
L_Toe0  0.505156 0.036476 -6.13608
R_Thigh  -2.52778 -1.84914 -26.6246
R_Calf  -0.150549 6.64601 21.1109
R_Foot  -0.962814 1.64139 13.8793
R_Toe0  -0.0195377 -0.205242 -8.96146
990
root  -5.0469 31.7539 48.5762 -70.6552 -5.10418 83.9436
Spine  1.04467 3.19191 -12.8087
Spine1  0.568755 -3.51402 -4.38436
Neck  3.97569e-016 0 -2.38542e-015
Head  -6.49619 -7.63376 13.5296
R_Clavicle  0.454861 -15.5414 2.67548
R_UpperArm  43.6651 -3.01002 32.9095
R_Forearm  0.232616 -44.0316 32.231
R_Hand  -1.419 10.555 -21.98
L_Clavicle  -0.448474 15.0116 2.81153
L_UpperArm  -27.2925 8.72158 26.3135
L_Forearm  1.38544 38.1658 45.6586
L_Hand  -0.0452793 0.706285 -0.778591
L_Thigh  -6.54688 1.37385 5.94502
L_Calf  2.10132 -5.76295 32.9865
L_Foot  -1.05674 7.97294 -11.3251
L_Toe0  0.505156 0.0364781 -6.13608
R_Thigh  -1.60339 2.26804 -25.2187
R_Calf  2.57381 7.01446 22.3764
R_Foot  -1.75831 0.0884637 14.9787
R_Toe0  0.809174 -0.325865 -13.5225
